# File created by Blade
# Date/Time:  Mon Sep 22 15:50:36 2014
# Frame Rate: 120.000 fps
#------------------------------------------------------
:FULLY-SPECIFIED
:DEGREES
3332
root 2.472754 36.931986 4.506813 3.193018 1.057343 2.884998
RightUpLeg 8.234210 -8.041695 -5.053629
RightLeg -5.625564 -0.000000 0.000000
RightFoot -14.667729 -16.791460 16.985041
RightToeBase 13.538401 -0.000000 -0.000000
LeftUpLeg 5.700573 -2.409897 -0.332657
LeftLeg -3.134565 -0.000000 0.000000
LeftFoot -11.115040 13.975550 -17.681197
LeftToeBase 7.639752 -0.000000 -0.000000
Spine -3.159461 22.001349 -1.132890
RightShoulder 2.294383 -29.923825 -12.253202
RightArm 16.788948 -25.530133 64.929044
RightForeArm 13.026533 0.000000 44.428728
RightHand 3.422567 -0.000000 -1.731292
RightHandThumb1 -24.326973 -0.000000 -32.862282
LeftShoulder -39.234185 31.924530 2.441795
LeftArm 70.631808 -73.875134 -107.475937
LeftForeArm -42.308308 0.000000 97.969947
LeftHand -11.152396 -0.000000 16.167956
LeftHandThumb1 -26.253704 0.000000 33.147579
Head 17.059173 -1.910994 3.767666
3333
root 2.477036 36.932614 4.503550 3.193755 1.113160 2.900029
RightUpLeg 8.237783 -8.070596 -5.070047
RightLeg -5.619683 -0.000000 0.000000
RightFoot -14.675784 -16.813667 16.986315
RightToeBase 13.530106 -0.000000 -0.000000
LeftUpLeg 5.692839 -2.440852 -0.347556
LeftLeg -3.141621 -0.000000 0.000000
LeftFoot -11.091076 13.946429 -17.680752
LeftToeBase 7.586956 -0.000000 -0.000000
Spine -3.153347 21.945972 -1.104386
RightShoulder 2.294938 -29.921726 -12.252959
RightArm 16.804251 -25.573732 64.907781
RightForeArm 13.040117 0.000000 44.443995
RightHand 3.418991 -0.000000 -1.709887
RightHandThumb1 -24.326973 -0.000000 -32.862282
LeftShoulder -39.204535 31.927267 2.448245
LeftArm 70.437276 -73.851461 -107.292453
LeftForeArm -42.265661 -0.000000 97.894309
LeftHand -11.127685 -0.000000 16.158429
LeftHandThumb1 -26.253704 0.000000 33.147579
Head 17.061253 -1.859162 3.762293
3334
root 2.481386 36.933141 4.499933 3.189623 1.162097 2.916515
RightUpLeg 8.245049 -8.081618 -5.085053
RightLeg -5.618879 -0.000000 0.000000
RightFoot -14.696769 -16.867020 16.989118
RightToeBase 13.579247 -0.000000 -0.000000
LeftUpLeg 5.686315 -2.439875 -0.362956
LeftLeg -3.142457 -0.000000 0.000000
LeftFoot -11.065762 13.901513 -17.669118
LeftToeBase 7.601699 -0.000000 -0.000000
Spine -3.137869 21.881606 -1.078794
RightShoulder 2.308518 -29.909867 -12.248144
RightArm 16.812730 -25.625655 64.880722
RightForeArm 13.071856 0.000000 44.460693
RightHand 3.408963 -0.000000 -1.714577
RightHandThumb1 -24.326973 -0.000000 -32.862282
LeftShoulder -39.203523 31.940274 2.446390
LeftArm 70.345886 -73.799006 -107.224078
LeftForeArm -42.217811 0.000000 97.826406
LeftHand -11.187527 -0.000000 16.195648
LeftHandThumb1 -26.253704 0.000000 33.147579
Head 17.055064 -1.807248 3.775993
3335
root 2.485956 36.933317 4.496386 3.183490 1.222430 2.933586
RightUpLeg 8.258321 -8.104016 -5.102064
RightLeg -5.620672 -0.000000 0.000000
RightFoot -14.714855 -16.904391 17.007703
RightToeBase 13.593116 -0.000000 -0.000000
LeftUpLeg 5.682717 -2.454528 -0.381408
LeftLeg -3.141674 -0.000000 0.000000
LeftFoot -11.000012 13.865283 -17.569855
LeftToeBase 7.487163 -0.000000 -0.000000
Spine -3.118700 21.828294 -1.047900
RightShoulder 2.300364 -29.908574 -12.245156
RightArm 16.829595 -25.684108 64.857801
RightForeArm 13.078097 0.000000 44.468199
RightHand 3.418118 0.000000 -1.762643
RightHandThumb1 -24.326973 -0.000000 -32.862282
LeftShoulder -39.173418 31.955506 2.449810
LeftArm 70.232295 -73.765179 -107.134603
LeftForeArm -42.254378 -0.000000 97.761303
LeftHand -11.156262 -0.000000 16.169285
LeftHandThumb1 -26.253704 0.000000 33.147579
Head 17.047676 -1.786366 3.779911
3336
root 2.490228 36.934194 4.491859 3.180962 1.284456 2.948880
RightUpLeg 8.261923 -8.129715 -5.115174
RightLeg -5.615321 -0.000000 0.000000
RightFoot -14.709873 -16.962900 16.979026
RightToeBase 13.557989 -0.000000 -0.000000
LeftUpLeg 5.676338 -2.490112 -0.395603
LeftLeg -3.154625 -0.000000 0.000000
LeftFoot -11.012794 13.838440 -17.653661
LeftToeBase 7.581066 -0.000000 -0.000000
Spine -3.089205 21.758080 -1.018317
RightShoulder 2.294585 -29.882300 -12.232100
RightArm 16.815773 -25.711630 64.843187
RightForeArm 12.963544 -0.000000 44.483074
RightHand 3.394747 0.000000 -1.792618
RightHandThumb1 -24.326973 -0.000000 -32.862282
LeftShoulder -39.161650 31.922595 2.454545
LeftArm 70.057913 -73.737888 -106.970378
LeftForeArm -42.307472 -0.000000 97.692674
LeftHand -11.199288 -0.000000 16.167850
LeftHandThumb1 -26.253704 0.000000 33.147579
Head 17.002674 -1.756562 3.793220
3337
root 2.495149 36.934849 4.487679 3.173589 1.343819 2.964158
RightUpLeg 8.272278 -8.160398 -5.130166
RightLeg -5.618217 -0.000000 0.000000
RightFoot -14.722490 -17.011970 16.998567
RightToeBase 13.553605 -0.000000 -0.000000
LeftUpLeg 5.674832 -2.524295 -0.413862
LeftLeg -3.157125 -0.000000 0.000000
LeftFoot -10.952490 13.809840 -17.579605
LeftToeBase 7.487452 -0.000000 -0.000000
Spine -3.063127 21.700144 -0.982237
RightShoulder 2.301917 -29.888419 -12.229728
RightArm 16.811506 -25.710230 64.838967
RightForeArm 12.914616 0.000000 44.485884
RightHand 3.428498 -0.000000 -1.693902
RightHandThumb1 -24.326973 -0.000000 -32.862282
LeftShoulder -39.139904 31.919458 2.459507
LeftArm 69.959562 -73.703423 -106.901729
LeftForeArm -42.410289 -0.000000 97.633693
LeftHand -11.238813 0.000000 16.183752
LeftHandThumb1 -26.253704 0.000000 33.147579
Head 16.989324 -1.736847 3.805564
3338
root 2.500023 36.935729 4.482257 3.177436 1.401426 2.985547
RightUpLeg 8.272902 -8.178742 -5.152654
RightLeg -5.618786 -0.000000 0.000000
RightFoot -14.737855 -17.043829 17.014569
RightToeBase 13.563310 -0.000000 -0.000000
LeftUpLeg 5.658361 -2.532329 -0.435058
LeftLeg -3.165778 -0.000000 0.000000
LeftFoot -10.956177 13.779769 -17.628297
LeftToeBase 7.641611 -0.000000 -0.000000
Spine -3.049991 21.663512 -0.964050
RightShoulder 2.287373 -29.901587 -12.209206
RightArm 16.804983 -25.714631 64.836648
RightForeArm 12.958932 -0.000000 44.496892
RightHand 3.456030 -0.000000 -1.572615
RightHandThumb1 -24.326973 -0.000000 -32.862282
LeftShoulder -39.098634 31.921637 2.476131
LeftArm 69.914813 -73.666153 -106.886394
LeftForeArm -42.515750 -0.000000 97.572345
LeftHand -11.165369 0.000000 16.112991
LeftHandThumb1 -26.253704 0.000000 33.147579
Head 16.973980 -1.741220 3.819390
3339
root 2.505168 36.936314 4.476664 3.176098 1.462352 3.004738
RightUpLeg 8.280035 -8.194247 -5.173017
RightLeg -5.622663 -0.000000 0.000000
RightFoot -14.733608 -17.091915 17.000432
RightToeBase 13.542614 -0.000000 -0.000000
LeftUpLeg 5.643351 -2.550735 -0.454557
LeftLeg -3.164546 -0.000000 0.000000
LeftFoot -10.926353 13.741857 -17.631918
LeftToeBase 7.591373 -0.000000 -0.000000
Spine -3.026169 21.609580 -0.936925
RightShoulder 2.280438 -29.907831 -12.199739
RightArm 16.801882 -25.723948 64.832359
RightForeArm 12.918795 -0.000000 44.508358
RightHand 3.414646 0.000000 -1.521710
RightHandThumb1 -24.326973 -0.000000 -32.862282
LeftShoulder -39.073819 31.924531 2.481651
LeftArm 69.919147 -73.632966 -106.923884
LeftForeArm -42.602597 -0.000000 97.524576
LeftHand -11.134197 0.000000 16.057798
LeftHandThumb1 -26.253704 0.000000 33.147579
Head 16.956760 -1.729002 3.829896
3340
root 2.509821 36.936990 4.472177 3.174533 1.518568 3.021162
RightUpLeg 8.289564 -8.237559 -5.195848
RightLeg -5.625207 -0.000000 0.000000
RightFoot -14.746429 -17.094922 17.019289
RightToeBase 13.557983 -0.000000 -0.000000
LeftUpLeg 5.634151 -2.554598 -0.469726
LeftLeg -3.168540 -0.000000 0.000000
LeftFoot -10.891947 13.693945 -17.605520
LeftToeBase 7.577248 -0.000000 -0.000000
Spine -3.007479 21.574109 -0.911138
RightShoulder 2.267538 -29.908001 -12.183562
RightArm 16.771893 -25.724275 64.857019
RightForeArm 12.938747 -0.000000 44.513794
RightHand 3.397259 -0.000000 -1.516211
RightHandThumb1 -24.326973 -0.000000 -32.862282
LeftShoulder -39.036616 31.922418 2.489698
LeftArm 69.883718 -73.610504 -106.900133
LeftForeArm -42.690856 0.000000 97.475807
LeftHand -11.087115 -0.000000 15.976710
LeftHandThumb1 -26.253704 0.000000 33.147579
Head 16.946570 -1.731968 3.838709
